<svg width="17" height="17" viewBox="0 0 17 17" fill="none" xmlns="http://www.w3.org/2000/svg">
<path d="M16.4387 16.1444L16.4387 16.1444C16.5204 16.2261 16.5204 16.3572 16.4387 16.4389C16.3979 16.4797 16.3453 16.5 16.2915 16.5C16.2377 16.5 16.1851 16.4797 16.1443 16.4389L11.3099 11.6045L10.9916 11.2862L10.6418 11.5695C9.57004 12.4371 8.21025 12.9583 6.7291 12.9583C3.29504 12.9583 0.5 10.1633 0.5 6.72914C0.5 3.29503 3.29501 0.5 6.72907 0.5C10.1631 0.5 12.9582 3.29506 12.9582 6.72918C12.9582 8.21035 12.437 9.57015 11.5693 10.6419L11.2861 10.9918L11.6044 11.3101L16.4387 16.1444ZM0.916662 6.72914C0.916662 9.93496 3.52331 12.5416 6.7291 12.5416C9.93486 12.5416 12.5415 9.93496 12.5415 6.72914C12.5415 3.52333 9.9349 0.916645 6.7291 0.916645C3.52331 0.916645 0.916662 3.52333 0.916662 6.72914Z" fill="white" stroke="#BBBBBB"/>
</svg>
